<svg width="64" height="64" viewBox="0 0 64 64" fill="none" xmlns="http://www.w3.org/2000/svg">
<g clip-path="url(#clip0_99_53)">
<path d="M32 64C49.6731 64 64 49.6731 64 32C64 14.3269 49.6731 0 32 0C14.3269 0 0 14.3269 0 32C0 49.6731 14.3269 64 32 64Z" fill="#008080"/>
<path d="M13 13H51V51H13V13Z" fill="#FFA500"/>
<path d="M32 47C40.2843 47 47 40.2843 47 32C47 23.7157 40.2843 17 32 17C23.7157 17 17 23.7157 17 32C17 40.2843 23.7157 47 32 47Z" fill="white"/>
<path d="M48.8411 43H33.0997V40.5178H34.8592V23.4882H33.0997V21.006H48.4012V25.8447H45.9191V23.4882H37.4671V30.6834H47.1759V33.1655H37.4671V40.5178H46.3589V38.1613H48.8411V43Z" fill="#008080"/>
<path d="M15.1589 43H30.9003V40.5178H29.1408V23.4882H30.9003V21.006H15.5988V25.8447H18.0809V23.4882H26.5329V30.6834H16.8241V33.1655H26.5329V40.5178H17.6411V38.1613H15.1589V43Z" fill="#008080"/>
</g>
<defs>
<clipPath id="clip0_99_53">
<rect width="64" height="64" fill="white"/>
</clipPath>
</defs>
</svg>
